<?xml version="1.0" encoding="utf-8"?>
<svg xmlns="http://www.w3.org/2000/svg" xmlns:xlink="http://www.w3.org/1999/xlink" width="600" height="400" viewBox="0 0 2400 1600">
<defs>
  <clipPath id="clip350">
    <rect x="0" y="0" width="2400" height="1600"/>
  </clipPath>
</defs>
<path clip-path="url(#clip350)" d="M0 1600 L2400 1600 L2400 0 L0 0  Z" fill="#ffffff" fill-rule="evenodd" fill-opacity="1"/>
<defs>
  <clipPath id="clip351">
    <rect x="480" y="0" width="1681" height="1600"/>
  </clipPath>
</defs>
<path clip-path="url(#clip350)" d="M232.389 1423.18 L2352.76 1423.18 L2352.76 47.2441 L232.389 47.2441  Z" fill="#eee9e9" fill-rule="evenodd" fill-opacity="1"/>
<defs>
  <clipPath id="clip352">
    <rect x="232" y="47" width="2121" height="1377"/>
  </clipPath>
</defs>
<polyline clip-path="url(#clip352)" style="stroke:#000000; stroke-linecap:round; stroke-linejoin:round; stroke-width:2; stroke-opacity:0.1; fill:none" points="292.4,1423.18 292.4,47.2441 "/>
<polyline clip-path="url(#clip352)" style="stroke:#000000; stroke-linecap:round; stroke-linejoin:round; stroke-width:2; stroke-opacity:0.1; fill:none" points="709.138,1423.18 709.138,47.2441 "/>
<polyline clip-path="url(#clip352)" style="stroke:#000000; stroke-linecap:round; stroke-linejoin:round; stroke-width:2; stroke-opacity:0.1; fill:none" points="1125.88,1423.18 1125.88,47.2441 "/>
<polyline clip-path="url(#clip352)" style="stroke:#000000; stroke-linecap:round; stroke-linejoin:round; stroke-width:2; stroke-opacity:0.1; fill:none" points="1542.62,1423.18 1542.62,47.2441 "/>
<polyline clip-path="url(#clip352)" style="stroke:#000000; stroke-linecap:round; stroke-linejoin:round; stroke-width:2; stroke-opacity:0.1; fill:none" points="1959.35,1423.18 1959.35,47.2441 "/>
<polyline clip-path="url(#clip350)" style="stroke:#000000; stroke-linecap:round; stroke-linejoin:round; stroke-width:4; stroke-opacity:1; fill:none" points="232.389,1423.18 2352.76,1423.18 "/>
<polyline clip-path="url(#clip350)" style="stroke:#000000; stroke-linecap:round; stroke-linejoin:round; stroke-width:4; stroke-opacity:1; fill:none" points="232.389,47.2441 2352.76,47.2441 "/>
<polyline clip-path="url(#clip350)" style="stroke:#000000; stroke-linecap:round; stroke-linejoin:round; stroke-width:4; stroke-opacity:1; fill:none" points="292.4,1423.18 292.4,1404.28 "/>
<polyline clip-path="url(#clip350)" style="stroke:#000000; stroke-linecap:round; stroke-linejoin:round; stroke-width:4; stroke-opacity:1; fill:none" points="709.138,1423.18 709.138,1404.28 "/>
<polyline clip-path="url(#clip350)" style="stroke:#000000; stroke-linecap:round; stroke-linejoin:round; stroke-width:4; stroke-opacity:1; fill:none" points="1125.88,1423.18 1125.88,1404.28 "/>
<polyline clip-path="url(#clip350)" style="stroke:#000000; stroke-linecap:round; stroke-linejoin:round; stroke-width:4; stroke-opacity:1; fill:none" points="1542.62,1423.18 1542.62,1404.28 "/>
<polyline clip-path="url(#clip350)" style="stroke:#000000; stroke-linecap:round; stroke-linejoin:round; stroke-width:4; stroke-opacity:1; fill:none" points="1959.35,1423.18 1959.35,1404.28 "/>
<path clip-path="url(#clip350)" d="M292.4 1454.1 Q288.789 1454.1 286.96 1457.66 Q285.154 1461.2 285.154 1468.33 Q285.154 1475.44 286.96 1479.01 Q288.789 1482.55 292.4 1482.55 Q296.034 1482.55 297.84 1479.01 Q299.668 1475.44 299.668 1468.33 Q299.668 1461.2 297.84 1457.66 Q296.034 1454.1 292.4 1454.1 M292.4 1450.39 Q298.21 1450.39 301.265 1455 Q304.344 1459.58 304.344 1468.33 Q304.344 1477.06 301.265 1481.67 Q298.21 1486.25 292.4 1486.25 Q286.59 1486.25 283.511 1481.67 Q280.455 1477.06 280.455 1468.33 Q280.455 1459.58 283.511 1455 Q286.59 1450.39 292.4 1450.39 Z" fill="#000000" fill-rule="nonzero" fill-opacity="1" /><path clip-path="url(#clip350)" d="M683.838 1451.02 L702.194 1451.02 L702.194 1454.96 L688.12 1454.96 L688.12 1463.43 Q689.139 1463.08 690.157 1462.92 Q691.176 1462.73 692.194 1462.73 Q697.981 1462.73 701.361 1465.9 Q704.74 1469.08 704.74 1474.49 Q704.74 1480.07 701.268 1483.17 Q697.796 1486.25 691.476 1486.25 Q689.301 1486.25 687.032 1485.88 Q684.787 1485.51 682.379 1484.77 L682.379 1480.07 Q684.463 1481.2 686.685 1481.76 Q688.907 1482.32 691.384 1482.32 Q695.389 1482.32 697.726 1480.21 Q700.064 1478.1 700.064 1474.49 Q700.064 1470.88 697.726 1468.77 Q695.389 1466.67 691.384 1466.67 Q689.509 1466.67 687.634 1467.08 Q685.782 1467.5 683.838 1468.38 L683.838 1451.02 Z" fill="#000000" fill-rule="nonzero" fill-opacity="1" /><path clip-path="url(#clip350)" d="M723.953 1454.1 Q720.342 1454.1 718.513 1457.66 Q716.708 1461.2 716.708 1468.33 Q716.708 1475.44 718.513 1479.01 Q720.342 1482.55 723.953 1482.55 Q727.587 1482.55 729.393 1479.01 Q731.222 1475.44 731.222 1468.33 Q731.222 1461.2 729.393 1457.66 Q727.587 1454.1 723.953 1454.1 M723.953 1450.39 Q729.763 1450.39 732.819 1455 Q735.898 1459.58 735.898 1468.33 Q735.898 1477.06 732.819 1481.67 Q729.763 1486.25 723.953 1486.25 Q718.143 1486.25 715.064 1481.67 Q712.009 1477.06 712.009 1468.33 Q712.009 1459.58 715.064 1455 Q718.143 1450.39 723.953 1450.39 Z" fill="#000000" fill-rule="nonzero" fill-opacity="1" /><path clip-path="url(#clip350)" d="M1085.48 1481.64 L1093.12 1481.64 L1093.12 1455.28 L1084.81 1456.95 L1084.81 1452.69 L1093.08 1451.02 L1097.75 1451.02 L1097.75 1481.64 L1105.39 1481.64 L1105.39 1485.58 L1085.48 1485.58 L1085.48 1481.64 Z" fill="#000000" fill-rule="nonzero" fill-opacity="1" /><path clip-path="url(#clip350)" d="M1124.84 1454.1 Q1121.22 1454.1 1119.4 1457.66 Q1117.59 1461.2 1117.59 1468.33 Q1117.59 1475.44 1119.4 1479.01 Q1121.22 1482.55 1124.84 1482.55 Q1128.47 1482.55 1130.28 1479.01 Q1132.1 1475.44 1132.1 1468.33 Q1132.1 1461.2 1130.28 1457.66 Q1128.47 1454.1 1124.84 1454.1 M1124.84 1450.39 Q1130.65 1450.39 1133.7 1455 Q1136.78 1459.58 1136.78 1468.33 Q1136.78 1477.06 1133.7 1481.67 Q1130.65 1486.25 1124.84 1486.25 Q1119.03 1486.25 1115.95 1481.67 Q1112.89 1477.06 1112.89 1468.33 Q1112.89 1459.58 1115.95 1455 Q1119.03 1450.39 1124.84 1450.39 Z" fill="#000000" fill-rule="nonzero" fill-opacity="1" /><path clip-path="url(#clip350)" d="M1155 1454.1 Q1151.39 1454.1 1149.56 1457.66 Q1147.75 1461.2 1147.75 1468.33 Q1147.75 1475.44 1149.56 1479.01 Q1151.39 1482.55 1155 1482.55 Q1158.63 1482.55 1160.44 1479.01 Q1162.27 1475.44 1162.27 1468.33 Q1162.27 1461.2 1160.44 1457.66 Q1158.63 1454.1 1155 1454.1 M1155 1450.39 Q1160.81 1450.39 1163.86 1455 Q1166.94 1459.58 1166.94 1468.33 Q1166.94 1477.06 1163.86 1481.67 Q1160.81 1486.25 1155 1486.25 Q1149.19 1486.25 1146.11 1481.67 Q1143.05 1477.06 1143.05 1468.33 Q1143.05 1459.58 1146.11 1455 Q1149.19 1450.39 1155 1450.39 Z" fill="#000000" fill-rule="nonzero" fill-opacity="1" /><path clip-path="url(#clip350)" d="M1502.22 1481.64 L1509.86 1481.64 L1509.86 1455.28 L1501.55 1456.95 L1501.55 1452.69 L1509.82 1451.02 L1514.49 1451.02 L1514.49 1481.64 L1522.13 1481.64 L1522.13 1485.58 L1502.22 1485.58 L1502.22 1481.64 Z" fill="#000000" fill-rule="nonzero" fill-opacity="1" /><path clip-path="url(#clip350)" d="M1531.62 1451.02 L1549.98 1451.02 L1549.98 1454.96 L1535.9 1454.96 L1535.9 1463.43 Q1536.92 1463.08 1537.94 1462.92 Q1538.96 1462.73 1539.98 1462.73 Q1545.76 1462.73 1549.14 1465.9 Q1552.52 1469.08 1552.52 1474.49 Q1552.52 1480.07 1549.05 1483.17 Q1545.58 1486.25 1539.26 1486.25 Q1537.08 1486.25 1534.81 1485.88 Q1532.57 1485.51 1530.16 1484.77 L1530.16 1480.07 Q1532.25 1481.2 1534.47 1481.76 Q1536.69 1482.32 1539.17 1482.32 Q1543.17 1482.32 1545.51 1480.21 Q1547.85 1478.1 1547.85 1474.49 Q1547.85 1470.88 1545.51 1468.77 Q1543.17 1466.67 1539.17 1466.67 Q1537.29 1466.67 1535.42 1467.08 Q1533.56 1467.5 1531.62 1468.38 L1531.62 1451.02 Z" fill="#000000" fill-rule="nonzero" fill-opacity="1" /><path clip-path="url(#clip350)" d="M1571.74 1454.1 Q1568.12 1454.1 1566.3 1457.66 Q1564.49 1461.2 1564.49 1468.33 Q1564.49 1475.44 1566.3 1479.01 Q1568.12 1482.55 1571.74 1482.55 Q1575.37 1482.55 1577.18 1479.01 Q1579 1475.44 1579 1468.33 Q1579 1461.2 1577.18 1457.66 Q1575.37 1454.1 1571.74 1454.1 M1571.74 1450.39 Q1577.55 1450.39 1580.6 1455 Q1583.68 1459.58 1583.68 1468.33 Q1583.68 1477.06 1580.6 1481.67 Q1577.55 1486.25 1571.74 1486.25 Q1565.93 1486.25 1562.85 1481.67 Q1559.79 1477.06 1559.79 1468.33 Q1559.79 1459.58 1562.85 1455 Q1565.93 1450.39 1571.74 1450.39 Z" fill="#000000" fill-rule="nonzero" fill-opacity="1" /><path clip-path="url(#clip350)" d="M1923.05 1481.64 L1939.37 1481.64 L1939.37 1485.58 L1917.42 1485.58 L1917.42 1481.64 Q1920.08 1478.89 1924.67 1474.26 Q1929.27 1469.61 1930.45 1468.27 Q1932.7 1465.74 1933.58 1464.01 Q1934.48 1462.25 1934.48 1460.56 Q1934.48 1457.8 1932.54 1456.07 Q1930.62 1454.33 1927.51 1454.33 Q1925.32 1454.33 1922.86 1455.09 Q1920.43 1455.86 1917.65 1457.41 L1917.65 1452.69 Q1920.48 1451.55 1922.93 1450.97 Q1925.38 1450.39 1927.42 1450.39 Q1932.79 1450.39 1935.99 1453.08 Q1939.18 1455.77 1939.18 1460.26 Q1939.18 1462.39 1938.37 1464.31 Q1937.58 1466.2 1935.48 1468.8 Q1934.9 1469.47 1931.8 1472.69 Q1928.7 1475.88 1923.05 1481.64 Z" fill="#000000" fill-rule="nonzero" fill-opacity="1" /><path clip-path="url(#clip350)" d="M1959.18 1454.1 Q1955.57 1454.1 1953.74 1457.66 Q1951.94 1461.2 1951.94 1468.33 Q1951.94 1475.44 1953.74 1479.01 Q1955.57 1482.55 1959.18 1482.55 Q1962.82 1482.55 1964.62 1479.01 Q1966.45 1475.44 1966.45 1468.33 Q1966.45 1461.2 1964.62 1457.66 Q1962.82 1454.1 1959.18 1454.1 M1959.18 1450.39 Q1964.99 1450.39 1968.05 1455 Q1971.13 1459.58 1971.13 1468.33 Q1971.13 1477.06 1968.05 1481.67 Q1964.99 1486.25 1959.18 1486.25 Q1953.37 1486.25 1950.29 1481.67 Q1947.24 1477.06 1947.24 1468.33 Q1947.24 1459.58 1950.29 1455 Q1953.37 1450.39 1959.18 1450.39 Z" fill="#000000" fill-rule="nonzero" fill-opacity="1" /><path clip-path="url(#clip350)" d="M1989.34 1454.1 Q1985.73 1454.1 1983.9 1457.66 Q1982.1 1461.2 1982.1 1468.33 Q1982.1 1475.44 1983.9 1479.01 Q1985.73 1482.55 1989.34 1482.55 Q1992.98 1482.55 1994.78 1479.01 Q1996.61 1475.44 1996.61 1468.33 Q1996.61 1461.2 1994.78 1457.66 Q1992.98 1454.1 1989.34 1454.1 M1989.34 1450.39 Q1995.15 1450.39 1998.21 1455 Q2001.29 1459.58 2001.29 1468.33 Q2001.29 1477.06 1998.21 1481.67 Q1995.15 1486.25 1989.34 1486.25 Q1983.53 1486.25 1980.45 1481.67 Q1977.4 1477.06 1977.4 1468.33 Q1977.4 1459.58 1980.45 1455 Q1983.53 1450.39 1989.34 1450.39 Z" fill="#000000" fill-rule="nonzero" fill-opacity="1" /><path clip-path="url(#clip350)" d="M924.985 1561.26 L924.985 1548.5 L914.481 1548.5 L914.481 1543.22 L931.351 1543.22 L931.351 1563.62 Q927.627 1566.26 923.139 1567.63 Q918.651 1568.97 913.558 1568.97 Q902.418 1568.97 896.116 1562.47 Q889.846 1555.95 889.846 1544.33 Q889.846 1532.68 896.116 1526.19 Q902.418 1519.66 913.558 1519.66 Q918.205 1519.66 922.375 1520.81 Q926.576 1521.96 930.109 1524.18 L930.109 1531.03 Q926.544 1528 922.534 1526.48 Q918.524 1524.95 914.1 1524.95 Q905.379 1524.95 900.986 1529.82 Q896.626 1534.69 896.626 1544.33 Q896.626 1553.94 900.986 1558.81 Q905.379 1563.68 914.1 1563.68 Q917.505 1563.68 920.179 1563.11 Q922.852 1562.51 924.985 1561.26 Z" fill="#000000" fill-rule="nonzero" fill-opacity="1" /><path clip-path="url(#clip350)" d="M956.654 1536.5 Q951.944 1536.5 949.206 1540.19 Q946.469 1543.85 946.469 1550.25 Q946.469 1556.65 949.175 1560.34 Q951.912 1564 956.654 1564 Q961.333 1564 964.07 1560.31 Q966.808 1556.62 966.808 1550.25 Q966.808 1543.92 964.07 1540.23 Q961.333 1536.5 956.654 1536.5 M956.654 1531.54 Q964.293 1531.54 968.654 1536.5 Q973.014 1541.47 973.014 1550.25 Q973.014 1559 968.654 1564 Q964.293 1568.97 956.654 1568.97 Q948.984 1568.97 944.623 1564 Q940.294 1559 940.294 1550.25 Q940.294 1541.47 944.623 1536.5 Q948.984 1531.54 956.654 1531.54 Z" fill="#000000" fill-rule="nonzero" fill-opacity="1" /><path clip-path="url(#clip350)" d="M996.535 1536.5 Q991.825 1536.5 989.088 1540.19 Q986.35 1543.85 986.35 1550.25 Q986.35 1556.65 989.056 1560.34 Q991.793 1564 996.535 1564 Q1001.21 1564 1003.95 1560.31 Q1006.69 1556.62 1006.69 1550.25 Q1006.69 1543.92 1003.95 1540.23 Q1001.21 1536.5 996.535 1536.5 M996.535 1531.54 Q1004.17 1531.54 1008.53 1536.5 Q1012.9 1541.47 1012.9 1550.25 Q1012.9 1559 1008.53 1564 Q1004.17 1568.97 996.535 1568.97 Q988.865 1568.97 984.504 1564 Q980.176 1559 980.176 1550.25 Q980.176 1541.47 984.504 1536.5 Q988.865 1531.54 996.535 1531.54 Z" fill="#000000" fill-rule="nonzero" fill-opacity="1" /><path clip-path="url(#clip350)" d="M1046.06 1537.81 L1046.06 1518.52 L1051.92 1518.52 L1051.92 1568.04 L1046.06 1568.04 L1046.06 1562.7 Q1044.21 1565.88 1041.38 1567.44 Q1038.58 1568.97 1034.63 1568.97 Q1028.17 1568.97 1024.1 1563.81 Q1020.06 1558.65 1020.06 1550.25 Q1020.06 1541.85 1024.1 1536.69 Q1028.17 1531.54 1034.63 1531.54 Q1038.58 1531.54 1041.38 1533.1 Q1044.21 1534.62 1046.06 1537.81 M1026.1 1550.25 Q1026.1 1556.71 1028.75 1560.4 Q1031.42 1564.07 1036.07 1564.07 Q1040.71 1564.07 1043.39 1560.4 Q1046.06 1556.71 1046.06 1550.25 Q1046.06 1543.79 1043.39 1540.13 Q1040.71 1536.44 1036.07 1536.44 Q1031.42 1536.44 1028.75 1540.13 Q1026.1 1543.79 1026.1 1550.25 Z" fill="#000000" fill-rule="nonzero" fill-opacity="1" /><path clip-path="url(#clip350)" d="M1098.51 1536.5 Q1093.8 1536.5 1091.07 1540.19 Q1088.33 1543.85 1088.33 1550.25 Q1088.33 1556.65 1091.03 1560.34 Q1093.77 1564 1098.51 1564 Q1103.19 1564 1105.93 1560.31 Q1108.67 1556.62 1108.67 1550.25 Q1108.67 1543.92 1105.93 1540.23 Q1103.19 1536.5 1098.51 1536.5 M1098.51 1531.54 Q1106.15 1531.54 1110.51 1536.5 Q1114.87 1541.47 1114.87 1550.25 Q1114.87 1559 1110.51 1564 Q1106.15 1568.97 1098.51 1568.97 Q1090.84 1568.97 1086.48 1564 Q1082.15 1559 1082.15 1550.25 Q1082.15 1541.47 1086.48 1536.5 Q1090.84 1531.54 1098.51 1531.54 Z" fill="#000000" fill-rule="nonzero" fill-opacity="1" /><path clip-path="url(#clip350)" d="M1145.24 1537.87 Q1144.25 1537.3 1143.07 1537.04 Q1141.93 1536.76 1140.53 1536.76 Q1135.56 1536.76 1132.89 1540 Q1130.25 1543.22 1130.25 1549.27 L1130.25 1568.04 L1124.36 1568.04 L1124.36 1532.4 L1130.25 1532.4 L1130.25 1537.93 Q1132.09 1534.69 1135.05 1533.13 Q1138.01 1531.54 1142.25 1531.54 Q1142.85 1531.54 1143.58 1531.63 Q1144.32 1531.7 1145.21 1531.85 L1145.24 1537.87 Z" fill="#000000" fill-rule="nonzero" fill-opacity="1" /><path clip-path="url(#clip350)" d="M1200.84 1522.08 L1200.84 1528.35 Q1197.18 1526.6 1193.94 1525.74 Q1190.69 1524.88 1187.67 1524.88 Q1182.41 1524.88 1179.55 1526.92 Q1176.72 1528.96 1176.72 1532.71 Q1176.72 1535.87 1178.59 1537.49 Q1180.5 1539.08 1185.79 1540.07 L1189.67 1540.86 Q1196.86 1542.23 1200.27 1545.7 Q1203.71 1549.14 1203.71 1554.93 Q1203.71 1561.84 1199.06 1565.4 Q1194.45 1568.97 1185.5 1568.97 Q1182.13 1568.97 1178.31 1568.2 Q1174.52 1567.44 1170.45 1565.94 L1170.45 1559.32 Q1174.36 1561.52 1178.12 1562.63 Q1181.87 1563.75 1185.5 1563.75 Q1191.01 1563.75 1194 1561.58 Q1196.99 1559.42 1196.99 1555.41 Q1196.99 1551.91 1194.83 1549.93 Q1192.69 1547.96 1187.79 1546.97 L1183.88 1546.21 Q1176.68 1544.78 1173.47 1541.72 Q1170.26 1538.67 1170.26 1533.22 Q1170.26 1526.92 1174.68 1523.29 Q1179.14 1519.66 1186.93 1519.66 Q1190.28 1519.66 1193.75 1520.27 Q1197.21 1520.87 1200.84 1522.08 Z" fill="#000000" fill-rule="nonzero" fill-opacity="1" /><path clip-path="url(#clip350)" d="M1243.97 1548.76 L1243.97 1551.62 L1217.04 1551.62 Q1217.43 1557.67 1220.67 1560.85 Q1223.95 1564 1229.77 1564 Q1233.15 1564 1236.3 1563.17 Q1239.48 1562.35 1242.6 1560.69 L1242.6 1566.23 Q1239.45 1567.57 1236.14 1568.27 Q1232.83 1568.97 1229.42 1568.97 Q1220.89 1568.97 1215.9 1564 Q1210.93 1559.04 1210.93 1550.57 Q1210.93 1541.82 1215.64 1536.69 Q1220.39 1531.54 1228.41 1531.54 Q1235.6 1531.54 1239.77 1536.18 Q1243.97 1540.8 1243.97 1548.76 M1238.11 1547.04 Q1238.05 1542.23 1235.41 1539.37 Q1232.8 1536.5 1228.47 1536.5 Q1223.57 1536.5 1220.61 1539.27 Q1217.68 1542.04 1217.23 1547.07 L1238.11 1547.04 Z" fill="#000000" fill-rule="nonzero" fill-opacity="1" /><path clip-path="url(#clip350)" d="M1274.24 1537.87 Q1273.25 1537.3 1272.08 1537.04 Q1270.93 1536.76 1269.53 1536.76 Q1264.56 1536.76 1261.89 1540 Q1259.25 1543.22 1259.25 1549.27 L1259.25 1568.04 L1253.36 1568.04 L1253.36 1532.4 L1259.25 1532.4 L1259.25 1537.93 Q1261.09 1534.69 1264.05 1533.13 Q1267.01 1531.54 1271.25 1531.54 Q1271.85 1531.54 1272.58 1531.63 Q1273.32 1531.7 1274.21 1531.85 L1274.24 1537.87 Z" fill="#000000" fill-rule="nonzero" fill-opacity="1" /><path clip-path="url(#clip350)" d="M1276.18 1532.4 L1282.39 1532.4 L1293.53 1562.31 L1304.67 1532.4 L1310.87 1532.4 L1297.51 1568.04 L1289.55 1568.04 L1276.18 1532.4 Z" fill="#000000" fill-rule="nonzero" fill-opacity="1" /><path clip-path="url(#clip350)" d="M1318.96 1532.4 L1324.81 1532.4 L1324.81 1568.04 L1318.96 1568.04 L1318.96 1532.4 M1318.96 1518.52 L1324.81 1518.52 L1324.81 1525.93 L1318.96 1525.93 L1318.96 1518.52 Z" fill="#000000" fill-rule="nonzero" fill-opacity="1" /><path clip-path="url(#clip350)" d="M1362.72 1533.76 L1362.72 1539.24 Q1360.24 1537.87 1357.73 1537.2 Q1355.24 1536.5 1352.7 1536.5 Q1347 1536.5 1343.85 1540.13 Q1340.7 1543.73 1340.7 1550.25 Q1340.7 1556.78 1343.85 1560.4 Q1347 1564 1352.7 1564 Q1355.24 1564 1357.73 1563.33 Q1360.24 1562.63 1362.72 1561.26 L1362.72 1566.68 Q1360.27 1567.82 1357.63 1568.39 Q1355.02 1568.97 1352.06 1568.97 Q1344.01 1568.97 1339.27 1563.91 Q1334.52 1558.85 1334.52 1550.25 Q1334.52 1541.53 1339.3 1536.53 Q1344.1 1531.54 1352.44 1531.54 Q1355.15 1531.54 1357.73 1532.11 Q1360.3 1532.65 1362.72 1533.76 Z" fill="#000000" fill-rule="nonzero" fill-opacity="1" /><path clip-path="url(#clip350)" d="M1403.4 1548.76 L1403.4 1551.62 L1376.47 1551.62 Q1376.85 1557.67 1380.1 1560.85 Q1383.38 1564 1389.2 1564 Q1392.58 1564 1395.73 1563.17 Q1398.91 1562.35 1402.03 1560.69 L1402.03 1566.23 Q1398.88 1567.57 1395.57 1568.27 Q1392.26 1568.97 1388.85 1568.97 Q1380.32 1568.97 1375.33 1564 Q1370.36 1559.04 1370.36 1550.57 Q1370.36 1541.82 1375.07 1536.69 Q1379.81 1531.54 1387.84 1531.54 Q1395.03 1531.54 1399.2 1536.18 Q1403.4 1540.8 1403.4 1548.76 M1397.54 1547.04 Q1397.48 1542.23 1394.84 1539.37 Q1392.23 1536.5 1387.9 1536.5 Q1383 1536.5 1380.04 1539.27 Q1377.11 1542.04 1376.66 1547.07 L1397.54 1547.04 Z" fill="#000000" fill-rule="nonzero" fill-opacity="1" /><path clip-path="url(#clip350)" d="M1435.67 1562.63 L1446.18 1562.63 L1446.18 1526.38 L1434.75 1528.67 L1434.75 1522.82 L1446.11 1520.52 L1452.54 1520.52 L1452.54 1562.63 L1463.05 1562.63 L1463.05 1568.04 L1435.67 1568.04 L1435.67 1562.63 Z" fill="#000000" fill-rule="nonzero" fill-opacity="1" /><path clip-path="url(#clip350)" d="M1509.99 1518.58 Q1505.73 1525.9 1503.66 1533.06 Q1501.59 1540.23 1501.59 1547.58 Q1501.59 1554.93 1503.66 1562.16 Q1505.76 1569.35 1509.99 1576.64 L1504.9 1576.64 Q1500.13 1569.16 1497.74 1561.93 Q1495.38 1554.71 1495.38 1547.58 Q1495.38 1540.48 1497.74 1533.29 Q1500.09 1526.09 1504.9 1518.58 L1509.99 1518.58 Z" fill="#000000" fill-rule="nonzero" fill-opacity="1" /><path clip-path="url(#clip350)" d="M1520.75 1553.98 L1520.75 1532.4 L1526.61 1532.4 L1526.61 1553.75 Q1526.61 1558.81 1528.58 1561.36 Q1530.55 1563.87 1534.5 1563.87 Q1539.24 1563.87 1541.98 1560.85 Q1544.75 1557.83 1544.75 1552.61 L1544.75 1532.4 L1550.61 1532.4 L1550.61 1568.04 L1544.75 1568.04 L1544.75 1562.57 Q1542.62 1565.82 1539.78 1567.41 Q1536.98 1568.97 1533.26 1568.97 Q1527.12 1568.97 1523.93 1565.15 Q1520.75 1561.33 1520.75 1553.98 M1535.49 1531.54 L1535.49 1531.54 Z" fill="#000000" fill-rule="nonzero" fill-opacity="1" /><path clip-path="url(#clip350)" d="M1592.3 1546.53 L1592.3 1568.04 L1586.45 1568.04 L1586.45 1546.72 Q1586.45 1541.66 1584.47 1539.14 Q1582.5 1536.63 1578.55 1536.63 Q1573.81 1536.63 1571.07 1539.65 Q1568.34 1542.68 1568.34 1547.9 L1568.34 1568.04 L1562.45 1568.04 L1562.45 1532.4 L1568.34 1532.4 L1568.34 1537.93 Q1570.44 1534.72 1573.27 1533.13 Q1576.13 1531.54 1579.86 1531.54 Q1586 1531.54 1589.15 1535.36 Q1592.3 1539.14 1592.3 1546.53 Z" fill="#000000" fill-rule="nonzero" fill-opacity="1" /><path clip-path="url(#clip350)" d="M1603.98 1532.4 L1609.84 1532.4 L1609.84 1568.04 L1603.98 1568.04 L1603.98 1532.4 M1603.98 1518.52 L1609.84 1518.52 L1609.84 1525.93 L1603.98 1525.93 L1603.98 1518.52 Z" fill="#000000" fill-rule="nonzero" fill-opacity="1" /><path clip-path="url(#clip350)" d="M1627.89 1522.27 L1627.89 1532.4 L1639.95 1532.4 L1639.95 1536.95 L1627.89 1536.95 L1627.89 1556.3 Q1627.89 1560.66 1629.06 1561.9 Q1630.27 1563.14 1633.93 1563.14 L1639.95 1563.14 L1639.95 1568.04 L1633.93 1568.04 Q1627.15 1568.04 1624.58 1565.53 Q1622 1562.98 1622 1556.3 L1622 1536.95 L1617.7 1536.95 L1617.7 1532.4 L1622 1532.4 L1622 1522.27 L1627.89 1522.27 Z" fill="#000000" fill-rule="nonzero" fill-opacity="1" /><path clip-path="url(#clip350)" d="M1670.38 1533.45 L1670.38 1538.98 Q1667.89 1537.71 1665.22 1537.07 Q1662.55 1536.44 1659.68 1536.44 Q1655.32 1536.44 1653.13 1537.77 Q1650.96 1539.11 1650.96 1541.79 Q1650.96 1543.82 1652.52 1545 Q1654.08 1546.15 1658.79 1547.2 L1660.8 1547.64 Q1667.04 1548.98 1669.65 1551.43 Q1672.29 1553.85 1672.29 1558.21 Q1672.29 1563.17 1668.34 1566.07 Q1664.43 1568.97 1657.55 1568.97 Q1654.69 1568.97 1651.57 1568.39 Q1648.48 1567.85 1645.04 1566.74 L1645.04 1560.69 Q1648.29 1562.38 1651.44 1563.24 Q1654.59 1564.07 1657.68 1564.07 Q1661.82 1564.07 1664.04 1562.66 Q1666.27 1561.23 1666.27 1558.65 Q1666.27 1556.27 1664.65 1554.99 Q1663.06 1553.72 1657.61 1552.54 L1655.58 1552.07 Q1650.13 1550.92 1647.72 1548.56 Q1645.3 1546.18 1645.3 1542.04 Q1645.3 1537.01 1648.86 1534.27 Q1652.43 1531.54 1658.98 1531.54 Q1662.23 1531.54 1665.09 1532.01 Q1667.96 1532.49 1670.38 1533.45 Z" fill="#000000" fill-rule="nonzero" fill-opacity="1" /><path clip-path="url(#clip350)" d="M1680.69 1518.58 L1685.78 1518.58 Q1690.56 1526.09 1692.91 1533.29 Q1695.3 1540.48 1695.3 1547.58 Q1695.3 1554.71 1692.91 1561.93 Q1690.56 1569.16 1685.78 1576.64 L1680.69 1576.64 Q1684.92 1569.35 1686.99 1562.16 Q1689.09 1554.93 1689.09 1547.58 Q1689.09 1540.23 1686.99 1533.06 Q1684.92 1525.9 1680.69 1518.58 Z" fill="#000000" fill-rule="nonzero" fill-opacity="1" /><polyline clip-path="url(#clip352)" style="stroke:#000000; stroke-linecap:round; stroke-linejoin:round; stroke-width:2; stroke-opacity:0.1; fill:none" points="232.389,1384.24 2352.76,1384.24 "/>
<polyline clip-path="url(#clip352)" style="stroke:#000000; stroke-linecap:round; stroke-linejoin:round; stroke-width:2; stroke-opacity:0.1; fill:none" points="232.389,1113.81 2352.76,1113.81 "/>
<polyline clip-path="url(#clip352)" style="stroke:#000000; stroke-linecap:round; stroke-linejoin:round; stroke-width:2; stroke-opacity:0.1; fill:none" points="232.389,843.383 2352.76,843.383 "/>
<polyline clip-path="url(#clip352)" style="stroke:#000000; stroke-linecap:round; stroke-linejoin:round; stroke-width:2; stroke-opacity:0.1; fill:none" points="232.389,572.955 2352.76,572.955 "/>
<polyline clip-path="url(#clip352)" style="stroke:#000000; stroke-linecap:round; stroke-linejoin:round; stroke-width:2; stroke-opacity:0.1; fill:none" points="232.389,302.528 2352.76,302.528 "/>
<polyline clip-path="url(#clip350)" style="stroke:#000000; stroke-linecap:round; stroke-linejoin:round; stroke-width:4; stroke-opacity:1; fill:none" points="232.389,1423.18 232.389,47.2441 "/>
<polyline clip-path="url(#clip350)" style="stroke:#000000; stroke-linecap:round; stroke-linejoin:round; stroke-width:4; stroke-opacity:1; fill:none" points="2352.76,1423.18 2352.76,47.2441 "/>
<polyline clip-path="url(#clip350)" style="stroke:#000000; stroke-linecap:round; stroke-linejoin:round; stroke-width:4; stroke-opacity:1; fill:none" points="232.389,1384.24 251.287,1384.24 "/>
<polyline clip-path="url(#clip350)" style="stroke:#000000; stroke-linecap:round; stroke-linejoin:round; stroke-width:4; stroke-opacity:1; fill:none" points="232.389,1113.81 251.287,1113.81 "/>
<polyline clip-path="url(#clip350)" style="stroke:#000000; stroke-linecap:round; stroke-linejoin:round; stroke-width:4; stroke-opacity:1; fill:none" points="232.389,843.383 251.287,843.383 "/>
<polyline clip-path="url(#clip350)" style="stroke:#000000; stroke-linecap:round; stroke-linejoin:round; stroke-width:4; stroke-opacity:1; fill:none" points="232.389,572.955 251.287,572.955 "/>
<polyline clip-path="url(#clip350)" style="stroke:#000000; stroke-linecap:round; stroke-linejoin:round; stroke-width:4; stroke-opacity:1; fill:none" points="232.389,302.528 251.287,302.528 "/>
<path clip-path="url(#clip350)" d="M184.445 1370.04 Q180.834 1370.04 179.005 1373.6 Q177.2 1377.14 177.2 1384.27 Q177.2 1391.38 179.005 1394.94 Q180.834 1398.49 184.445 1398.49 Q188.079 1398.49 189.885 1394.94 Q191.713 1391.38 191.713 1384.27 Q191.713 1377.14 189.885 1373.6 Q188.079 1370.04 184.445 1370.04 M184.445 1366.33 Q190.255 1366.33 193.311 1370.94 Q196.389 1375.52 196.389 1384.27 Q196.389 1393 193.311 1397.61 Q190.255 1402.19 184.445 1402.19 Q178.635 1402.19 175.556 1397.61 Q172.501 1393 172.501 1384.27 Q172.501 1375.52 175.556 1370.94 Q178.635 1366.33 184.445 1366.33 Z" fill="#000000" fill-rule="nonzero" fill-opacity="1" /><path clip-path="url(#clip350)" d="M149.306 1127.16 L165.626 1127.16 L165.626 1131.09 L143.681 1131.09 L143.681 1127.16 Q146.343 1124.4 150.927 1119.77 Q155.533 1115.12 156.714 1113.78 Q158.959 1111.25 159.839 1109.52 Q160.741 1107.76 160.741 1106.07 Q160.741 1103.31 158.797 1101.58 Q156.876 1099.84 153.774 1099.84 Q151.575 1099.84 149.121 1100.6 Q146.691 1101.37 143.913 1102.92 L143.913 1098.2 Q146.737 1097.06 149.191 1096.48 Q151.644 1095.91 153.681 1095.91 Q159.052 1095.91 162.246 1098.59 Q165.44 1101.28 165.44 1105.77 Q165.44 1107.9 164.63 1109.82 Q163.843 1111.72 161.737 1114.31 Q161.158 1114.98 158.056 1118.2 Q154.954 1121.39 149.306 1127.16 Z" fill="#000000" fill-rule="nonzero" fill-opacity="1" /><path clip-path="url(#clip350)" d="M175.487 1096.53 L193.843 1096.53 L193.843 1100.47 L179.769 1100.47 L179.769 1108.94 Q180.788 1108.59 181.806 1108.43 Q182.825 1108.24 183.843 1108.24 Q189.63 1108.24 193.01 1111.41 Q196.389 1114.59 196.389 1120 Q196.389 1125.58 192.917 1128.68 Q189.445 1131.76 183.126 1131.76 Q180.95 1131.76 178.681 1131.39 Q176.436 1131.02 174.028 1130.28 L174.028 1125.58 Q176.112 1126.72 178.334 1127.27 Q180.556 1127.83 183.033 1127.83 Q187.038 1127.83 189.375 1125.72 Q191.713 1123.61 191.713 1120 Q191.713 1116.39 189.375 1114.29 Q187.038 1112.18 183.033 1112.18 Q181.158 1112.18 179.283 1112.6 Q177.431 1113.01 175.487 1113.89 L175.487 1096.53 Z" fill="#000000" fill-rule="nonzero" fill-opacity="1" /><path clip-path="url(#clip350)" d="M144.329 826.103 L162.686 826.103 L162.686 830.038 L148.612 830.038 L148.612 838.51 Q149.63 838.163 150.649 838.001 Q151.667 837.816 152.686 837.816 Q158.473 837.816 161.852 840.987 Q165.232 844.158 165.232 849.575 Q165.232 855.154 161.76 858.256 Q158.288 861.334 151.968 861.334 Q149.792 861.334 147.524 860.964 Q145.279 860.594 142.871 859.853 L142.871 855.154 Q144.954 856.288 147.177 856.844 Q149.399 857.399 151.876 857.399 Q155.88 857.399 158.218 855.293 Q160.556 853.186 160.556 849.575 Q160.556 845.964 158.218 843.858 Q155.88 841.751 151.876 841.751 Q150.001 841.751 148.126 842.168 Q146.274 842.584 144.329 843.464 L144.329 826.103 Z" fill="#000000" fill-rule="nonzero" fill-opacity="1" /><path clip-path="url(#clip350)" d="M184.445 829.182 Q180.834 829.182 179.005 832.747 Q177.2 836.288 177.2 843.418 Q177.2 850.524 179.005 854.089 Q180.834 857.631 184.445 857.631 Q188.079 857.631 189.885 854.089 Q191.713 850.524 191.713 843.418 Q191.713 836.288 189.885 832.747 Q188.079 829.182 184.445 829.182 M184.445 825.478 Q190.255 825.478 193.311 830.084 Q196.389 834.668 196.389 843.418 Q196.389 852.145 193.311 856.751 Q190.255 861.334 184.445 861.334 Q178.635 861.334 175.556 856.751 Q172.501 852.145 172.501 843.418 Q172.501 834.668 175.556 830.084 Q178.635 825.478 184.445 825.478 Z" fill="#000000" fill-rule="nonzero" fill-opacity="1" /><path clip-path="url(#clip350)" d="M144.098 555.675 L166.32 555.675 L166.32 557.666 L153.774 590.235 L148.89 590.235 L160.695 559.611 L144.098 559.611 L144.098 555.675 Z" fill="#000000" fill-rule="nonzero" fill-opacity="1" /><path clip-path="url(#clip350)" d="M175.487 555.675 L193.843 555.675 L193.843 559.611 L179.769 559.611 L179.769 568.083 Q180.788 567.736 181.806 567.573 Q182.825 567.388 183.843 567.388 Q189.63 567.388 193.01 570.56 Q196.389 573.731 196.389 579.147 Q196.389 584.726 192.917 587.828 Q189.445 590.907 183.126 590.907 Q180.95 590.907 178.681 590.536 Q176.436 590.166 174.028 589.425 L174.028 584.726 Q176.112 585.86 178.334 586.416 Q180.556 586.972 183.033 586.972 Q187.038 586.972 189.375 584.865 Q191.713 582.759 191.713 579.147 Q191.713 575.536 189.375 573.43 Q187.038 571.323 183.033 571.323 Q181.158 571.323 179.283 571.74 Q177.431 572.157 175.487 573.036 L175.487 555.675 Z" fill="#000000" fill-rule="nonzero" fill-opacity="1" /><path clip-path="url(#clip350)" d="M114.931 315.873 L122.57 315.873 L122.57 289.507 L114.26 291.174 L114.26 286.914 L122.524 285.248 L127.2 285.248 L127.2 315.873 L134.839 315.873 L134.839 319.808 L114.931 319.808 L114.931 315.873 Z" fill="#000000" fill-rule="nonzero" fill-opacity="1" /><path clip-path="url(#clip350)" d="M154.283 288.326 Q150.672 288.326 148.843 291.891 Q147.038 295.433 147.038 302.562 Q147.038 309.669 148.843 313.234 Q150.672 316.775 154.283 316.775 Q157.917 316.775 159.723 313.234 Q161.552 309.669 161.552 302.562 Q161.552 295.433 159.723 291.891 Q157.917 288.326 154.283 288.326 M154.283 284.623 Q160.093 284.623 163.149 289.229 Q166.227 293.813 166.227 302.562 Q166.227 311.289 163.149 315.896 Q160.093 320.479 154.283 320.479 Q148.473 320.479 145.394 315.896 Q142.339 311.289 142.339 302.562 Q142.339 293.813 145.394 289.229 Q148.473 284.623 154.283 284.623 Z" fill="#000000" fill-rule="nonzero" fill-opacity="1" /><path clip-path="url(#clip350)" d="M184.445 288.326 Q180.834 288.326 179.005 291.891 Q177.2 295.433 177.2 302.562 Q177.2 309.669 179.005 313.234 Q180.834 316.775 184.445 316.775 Q188.079 316.775 189.885 313.234 Q191.713 309.669 191.713 302.562 Q191.713 295.433 189.885 291.891 Q188.079 288.326 184.445 288.326 M184.445 284.623 Q190.255 284.623 193.311 289.229 Q196.389 293.813 196.389 302.562 Q196.389 311.289 193.311 315.896 Q190.255 320.479 184.445 320.479 Q178.635 320.479 175.556 315.896 Q172.501 311.289 172.501 302.562 Q172.501 293.813 175.556 289.229 Q178.635 284.623 184.445 284.623 Z" fill="#000000" fill-rule="nonzero" fill-opacity="1" /><path clip-path="url(#clip350)" d="M57.2247 1102.8 L44.4614 1102.8 L44.4614 1113.3 L39.1779 1113.3 L39.1779 1096.43 L59.58 1096.43 Q62.2218 1100.16 63.5904 1104.65 Q64.9272 1109.13 64.9272 1114.23 Q64.9272 1125.37 58.4342 1131.67 Q51.9093 1137.94 40.2919 1137.94 Q28.6427 1137.94 22.1496 1131.67 Q15.6248 1125.37 15.6248 1114.23 Q15.6248 1109.58 16.7706 1105.41 Q17.9164 1101.21 20.1444 1097.68 L26.9876 1097.68 Q23.9639 1101.24 22.4361 1105.25 Q20.9083 1109.26 20.9083 1113.69 Q20.9083 1122.41 25.7781 1126.8 Q30.6479 1131.16 40.2919 1131.16 Q49.9041 1131.16 54.7739 1126.8 Q59.6436 1122.41 59.6436 1113.69 Q59.6436 1110.28 59.0707 1107.61 Q58.466 1104.93 57.2247 1102.8 Z" fill="#000000" fill-rule="nonzero" fill-opacity="1" /><path clip-path="url(#clip350)" d="M32.4621 1071.13 Q32.4621 1075.84 36.1542 1078.58 Q39.8145 1081.32 46.212 1081.32 Q52.6095 1081.32 56.3017 1078.61 Q59.9619 1075.87 59.9619 1071.13 Q59.9619 1066.45 56.2698 1063.71 Q52.5777 1060.98 46.212 1060.98 Q39.8781 1060.98 36.186 1063.71 Q32.4621 1066.45 32.4621 1071.13 M27.4968 1071.13 Q27.4968 1063.49 32.4621 1059.13 Q37.4273 1054.77 46.212 1054.77 Q54.9649 1054.77 59.9619 1059.13 Q64.9272 1063.49 64.9272 1071.13 Q64.9272 1078.8 59.9619 1083.16 Q54.9649 1087.49 46.212 1087.49 Q37.4273 1087.49 32.4621 1083.16 Q27.4968 1078.8 27.4968 1071.13 Z" fill="#000000" fill-rule="nonzero" fill-opacity="1" /><path clip-path="url(#clip350)" d="M32.4621 1031.25 Q32.4621 1035.96 36.1542 1038.7 Q39.8145 1041.43 46.212 1041.43 Q52.6095 1041.43 56.3017 1038.73 Q59.9619 1035.99 59.9619 1031.25 Q59.9619 1026.57 56.2698 1023.83 Q52.5777 1021.1 46.212 1021.1 Q39.8781 1021.1 36.186 1023.83 Q32.4621 1026.57 32.4621 1031.25 M27.4968 1031.25 Q27.4968 1023.61 32.4621 1019.25 Q37.4273 1014.89 46.212 1014.89 Q54.9649 1014.89 59.9619 1019.25 Q64.9272 1023.61 64.9272 1031.25 Q64.9272 1038.92 59.9619 1043.28 Q54.9649 1047.61 46.212 1047.61 Q37.4273 1047.61 32.4621 1043.28 Q27.4968 1038.92 27.4968 1031.25 Z" fill="#000000" fill-rule="nonzero" fill-opacity="1" /><path clip-path="url(#clip350)" d="M33.7671 981.724 L14.479 981.724 L14.479 975.868 L64.0042 975.868 L64.0042 981.724 L58.657 981.724 Q61.8398 983.57 63.3994 986.403 Q64.9272 989.204 64.9272 993.15 Q64.9272 999.612 59.771 1003.69 Q54.6147 1007.73 46.212 1007.73 Q37.8093 1007.73 32.6531 1003.69 Q27.4968 999.612 27.4968 993.15 Q27.4968 989.204 29.0564 986.403 Q30.5842 983.57 33.7671 981.724 M46.212 1001.68 Q52.6732 1001.68 56.3653 999.039 Q60.0256 996.365 60.0256 991.718 Q60.0256 987.071 56.3653 984.398 Q52.6732 981.724 46.212 981.724 Q39.7508 981.724 36.0905 984.398 Q32.3984 987.071 32.3984 991.718 Q32.3984 996.365 36.0905 999.039 Q39.7508 1001.68 46.212 1001.68 Z" fill="#000000" fill-rule="nonzero" fill-opacity="1" /><path clip-path="url(#clip350)" d="M32.4621 929.271 Q32.4621 933.981 36.1542 936.718 Q39.8145 939.456 46.212 939.456 Q52.6095 939.456 56.3017 936.75 Q59.9619 934.013 59.9619 929.271 Q59.9619 924.592 56.2698 921.854 Q52.5777 919.117 46.212 919.117 Q39.8781 919.117 36.186 921.854 Q32.4621 924.592 32.4621 929.271 M27.4968 929.271 Q27.4968 921.632 32.4621 917.271 Q37.4273 912.911 46.212 912.911 Q54.9649 912.911 59.9619 917.271 Q64.9272 921.632 64.9272 929.271 Q64.9272 936.941 59.9619 941.302 Q54.9649 945.63 46.212 945.63 Q37.4273 945.63 32.4621 941.302 Q27.4968 936.941 27.4968 929.271 Z" fill="#000000" fill-rule="nonzero" fill-opacity="1" /><path clip-path="url(#clip350)" d="M33.8307 882.546 Q33.2578 883.533 33.0032 884.711 Q32.7167 885.856 32.7167 887.257 Q32.7167 892.222 35.9632 894.896 Q39.1779 897.537 45.2253 897.537 L64.0042 897.537 L64.0042 903.426 L28.3562 903.426 L28.3562 897.537 L33.8944 897.537 Q30.6479 895.691 29.0883 892.731 Q27.4968 889.771 27.4968 885.538 Q27.4968 884.933 27.5923 884.201 Q27.656 883.469 27.8151 882.578 L33.8307 882.546 Z" fill="#000000" fill-rule="nonzero" fill-opacity="1" /><path clip-path="url(#clip350)" d="M18.0438 826.942 L24.314 826.942 Q22.5634 830.602 21.704 833.849 Q20.8447 837.095 20.8447 840.119 Q20.8447 845.371 22.8817 848.235 Q24.9187 851.068 28.6745 851.068 Q31.8255 851.068 33.4488 849.19 Q35.0402 847.28 36.0269 841.997 L36.8226 838.114 Q38.1912 830.92 41.6605 827.515 Q45.098 824.077 50.8908 824.077 Q57.7976 824.077 61.3624 828.724 Q64.9272 833.339 64.9272 842.283 Q64.9272 845.657 64.1633 849.476 Q63.3994 853.264 61.9035 857.338 L55.2831 857.338 Q57.4793 853.423 58.5933 849.667 Q59.7073 845.912 59.7073 842.283 Q59.7073 836.777 57.543 833.785 Q55.3786 830.793 51.3682 830.793 Q47.8671 830.793 45.8937 832.957 Q43.9204 835.09 42.9337 839.991 L42.1698 843.906 Q40.7375 851.1 37.682 854.314 Q34.6264 857.529 29.1837 857.529 Q22.8817 857.529 19.2532 853.105 Q15.6248 848.649 15.6248 840.851 Q15.6248 837.509 16.2295 834.04 Q16.8343 830.57 18.0438 826.942 Z" fill="#000000" fill-rule="nonzero" fill-opacity="1" /><path clip-path="url(#clip350)" d="M44.7161 783.814 L47.5806 783.814 L47.5806 810.741 Q53.6281 810.359 56.8109 807.113 Q59.9619 803.834 59.9619 798.01 Q59.9619 794.636 59.1344 791.485 Q58.3069 788.302 56.6518 785.183 L62.1899 785.183 Q63.5267 788.334 64.227 791.644 Q64.9272 794.954 64.9272 798.36 Q64.9272 806.89 59.9619 811.887 Q54.9967 816.852 46.5303 816.852 Q37.7774 816.852 32.6531 812.142 Q27.4968 807.399 27.4968 799.378 Q27.4968 792.185 32.1438 788.016 Q36.7589 783.814 44.7161 783.814 M42.9973 789.671 Q38.1912 789.734 35.3266 792.376 Q32.4621 794.986 32.4621 799.315 Q32.4621 804.216 35.2312 807.176 Q38.0002 810.105 43.0292 810.55 L42.9973 789.671 Z" fill="#000000" fill-rule="nonzero" fill-opacity="1" /><path clip-path="url(#clip350)" d="M33.8307 753.545 Q33.2578 754.532 33.0032 755.71 Q32.7167 756.855 32.7167 758.256 Q32.7167 763.221 35.9632 765.895 Q39.1779 768.536 45.2253 768.536 L64.0042 768.536 L64.0042 774.425 L28.3562 774.425 L28.3562 768.536 L33.8944 768.536 Q30.6479 766.69 29.0883 763.73 Q27.4968 760.77 27.4968 756.537 Q27.4968 755.932 27.5923 755.2 Q27.656 754.468 27.8151 753.577 L33.8307 753.545 Z" fill="#000000" fill-rule="nonzero" fill-opacity="1" /><path clip-path="url(#clip350)" d="M28.3562 751.604 L28.3562 745.397 L58.275 734.257 L28.3562 723.117 L28.3562 716.911 L64.0042 730.279 L64.0042 738.236 L28.3562 751.604 Z" fill="#000000" fill-rule="nonzero" fill-opacity="1" /><path clip-path="url(#clip350)" d="M28.3562 708.826 L28.3562 702.97 L64.0042 702.97 L64.0042 708.826 L28.3562 708.826 M14.479 708.826 L14.479 702.97 L21.895 702.97 L21.895 708.826 L14.479 708.826 Z" fill="#000000" fill-rule="nonzero" fill-opacity="1" /><path clip-path="url(#clip350)" d="M29.7248 665.062 L35.1993 665.062 Q33.8307 667.545 33.1623 670.059 Q32.4621 672.542 32.4621 675.088 Q32.4621 680.785 36.0905 683.936 Q39.6872 687.087 46.212 687.087 Q52.7369 687.087 56.3653 683.936 Q59.9619 680.785 59.9619 675.088 Q59.9619 672.542 59.2935 670.059 Q58.5933 667.545 57.2247 665.062 L62.6355 665.062 Q63.7814 667.513 64.3543 670.154 Q64.9272 672.764 64.9272 675.724 Q64.9272 683.777 59.8664 688.52 Q54.8057 693.262 46.212 693.262 Q37.491 693.262 32.4939 688.488 Q27.4968 683.682 27.4968 675.342 Q27.4968 672.637 28.0697 670.059 Q28.6108 667.481 29.7248 665.062 Z" fill="#000000" fill-rule="nonzero" fill-opacity="1" /><path clip-path="url(#clip350)" d="M44.7161 624.385 L47.5806 624.385 L47.5806 651.312 Q53.6281 650.93 56.8109 647.684 Q59.9619 644.405 59.9619 638.581 Q59.9619 635.207 59.1344 632.056 Q58.3069 628.873 56.6518 625.754 L62.1899 625.754 Q63.5267 628.905 64.227 632.215 Q64.9272 635.525 64.9272 638.931 Q64.9272 647.461 59.9619 652.458 Q54.9967 657.423 46.5303 657.423 Q37.7774 657.423 32.6531 652.712 Q27.4968 647.97 27.4968 639.949 Q27.4968 632.756 32.1438 628.586 Q36.7589 624.385 44.7161 624.385 M42.9973 630.241 Q38.1912 630.305 35.3266 632.947 Q32.4621 635.557 32.4621 639.886 Q32.4621 644.787 35.2312 647.747 Q38.0002 650.675 43.0292 651.121 L42.9973 630.241 Z" fill="#000000" fill-rule="nonzero" fill-opacity="1" /><path clip-path="url(#clip350)" d="M58.5933 587.687 L58.5933 565.248 L64.0042 565.248 L64.0042 595.421 L58.5933 595.421 Q54.8057 591.761 48.44 585.459 Q42.0425 579.125 40.1964 577.502 Q36.7271 574.414 34.34 573.205 Q31.921 571.963 29.5975 571.963 Q25.8099 571.963 23.4228 574.637 Q21.0356 577.279 21.0356 581.544 Q21.0356 584.568 22.086 587.941 Q23.1363 591.283 25.2688 595.103 L18.7758 595.103 Q17.2162 591.22 16.4205 587.846 Q15.6248 584.472 15.6248 581.671 Q15.6248 574.287 19.3169 569.895 Q23.009 565.502 29.1837 565.502 Q32.112 565.502 34.7537 566.616 Q37.3637 567.698 40.9285 570.595 Q41.8515 571.391 46.2757 575.656 Q50.668 579.921 58.5933 587.687 Z" fill="#000000" fill-rule="nonzero" fill-opacity="1" /><path clip-path="url(#clip350)" d="M14.5426 517.791 Q21.8632 522.056 29.0246 524.125 Q36.186 526.194 43.5384 526.194 Q50.8908 526.194 58.1159 524.125 Q65.3091 522.024 72.5979 517.791 L72.5979 522.884 Q65.1182 527.658 57.8931 530.045 Q50.668 532.401 43.5384 532.401 Q36.4406 532.401 29.2474 530.045 Q22.0542 527.69 14.5426 522.884 L14.5426 517.791 Z" fill="#000000" fill-rule="nonzero" fill-opacity="1" /><path clip-path="url(#clip350)" d="M49.9359 507.033 L28.3562 507.033 L28.3562 501.177 L49.7131 501.177 Q54.7739 501.177 57.3202 499.203 Q59.8346 497.23 59.8346 493.283 Q59.8346 488.541 56.8109 485.804 Q53.7872 483.035 48.5673 483.035 L28.3562 483.035 L28.3562 477.178 L64.0042 477.178 L64.0042 483.035 L58.5296 483.035 Q61.7762 485.167 63.3676 488 Q64.9272 490.801 64.9272 494.525 Q64.9272 500.668 61.1078 503.85 Q57.2883 507.033 49.9359 507.033 M27.4968 492.297 L27.4968 492.297 Z" fill="#000000" fill-rule="nonzero" fill-opacity="1" /><path clip-path="url(#clip350)" d="M42.4881 435.483 L64.0042 435.483 L64.0042 441.339 L42.679 441.339 Q37.6183 441.339 35.1038 443.312 Q32.5894 445.286 32.5894 449.233 Q32.5894 453.975 35.6131 456.712 Q38.6368 459.45 43.8567 459.45 L64.0042 459.45 L64.0042 465.338 L28.3562 465.338 L28.3562 459.45 L33.8944 459.45 Q30.6797 457.349 29.0883 454.516 Q27.4968 451.652 27.4968 447.928 Q27.4968 441.785 31.3163 438.634 Q35.1038 435.483 42.4881 435.483 Z" fill="#000000" fill-rule="nonzero" fill-opacity="1" /><path clip-path="url(#clip350)" d="M28.3562 423.802 L28.3562 417.945 L64.0042 417.945 L64.0042 423.802 L28.3562 423.802 M14.479 423.802 L14.479 417.945 L21.895 417.945 L21.895 423.802 L14.479 423.802 Z" fill="#000000" fill-rule="nonzero" fill-opacity="1" /><path clip-path="url(#clip350)" d="M18.2347 399.898 L28.3562 399.898 L28.3562 387.835 L32.9077 387.835 L32.9077 399.898 L52.2594 399.898 Q56.6199 399.898 57.8613 398.721 Q59.1026 397.511 59.1026 393.851 L59.1026 387.835 L64.0042 387.835 L64.0042 393.851 Q64.0042 400.63 61.4897 403.209 Q58.9434 405.787 52.2594 405.787 L32.9077 405.787 L32.9077 410.084 L28.3562 410.084 L28.3562 405.787 L18.2347 405.787 L18.2347 399.898 Z" fill="#000000" fill-rule="nonzero" fill-opacity="1" /><path clip-path="url(#clip350)" d="M29.4065 357.407 L34.9447 357.407 Q33.6716 359.89 33.035 362.564 Q32.3984 365.237 32.3984 368.102 Q32.3984 372.462 33.7352 374.658 Q35.072 376.823 37.7456 376.823 Q39.7826 376.823 40.9603 375.263 Q42.1061 373.703 43.1565 368.993 L43.6021 366.988 Q44.9389 360.749 47.3897 358.139 Q49.8086 355.498 54.1691 355.498 Q59.1344 355.498 62.0308 359.444 Q64.9272 363.359 64.9272 370.234 Q64.9272 373.099 64.3543 376.218 Q63.8132 379.305 62.6992 382.743 L56.6518 382.743 Q58.3387 379.496 59.198 376.345 Q60.0256 373.194 60.0256 370.107 Q60.0256 365.969 58.6251 363.741 Q57.1929 361.513 54.6147 361.513 Q52.2276 361.513 50.9545 363.136 Q49.6813 364.728 48.5037 370.171 L48.0262 372.208 Q46.8804 377.65 44.5251 380.069 Q42.138 382.488 38.0002 382.488 Q32.9713 382.488 30.2341 378.923 Q27.4968 375.359 27.4968 368.802 Q27.4968 365.555 27.9743 362.691 Q28.4517 359.826 29.4065 357.407 Z" fill="#000000" fill-rule="nonzero" fill-opacity="1" /><path clip-path="url(#clip350)" d="M14.5426 347.095 L14.5426 342.002 Q22.0542 337.228 29.2474 334.873 Q36.4406 332.486 43.5384 332.486 Q50.668 332.486 57.8931 334.873 Q65.1182 337.228 72.5979 342.002 L72.5979 347.095 Q65.3091 342.862 58.1159 340.793 Q50.8908 338.692 43.5384 338.692 Q36.186 338.692 29.0246 340.793 Q21.8632 342.862 14.5426 347.095 Z" fill="#000000" fill-rule="nonzero" fill-opacity="1" /><polyline clip-path="url(#clip352)" style="stroke:#009af9; stroke-linecap:round; stroke-linejoin:round; stroke-width:12; stroke-opacity:1; fill:none" points="292.4,518.87 305.87,527.611 319.34,536.352 332.811,545.093 346.281,553.834 359.751,562.575 373.222,571.316 386.692,580.058 400.162,588.799 413.633,597.54 427.103,606.281 440.573,615.022 454.044,623.763 467.514,632.504 480.985,641.245 494.455,649.986 507.925,658.727 521.396,667.468 534.866,676.21 548.336,684.951 561.807,693.692 575.277,702.433 588.747,711.174 602.218,719.915 615.688,728.656 629.158,737.397 642.629,746.138 656.099,754.879 669.569,763.621 683.04,772.362 696.51,781.103 709.98,789.844 723.451,798.585 736.921,807.326 750.391,816.067 763.862,824.808 777.332,833.549 790.802,842.29 804.273,851.031 817.743,859.773 831.213,868.514 844.684,877.255 858.154,885.996 871.624,894.737 885.095,903.478 898.565,912.219 912.035,920.96 925.506,929.701 938.976,938.442 952.446,947.184 965.917,955.925 979.387,964.666 992.858,973.407 1006.33,982.148 1019.8,990.889 1033.27,999.63 1046.74,1008.37 1060.21,1017.11 1073.68,1025.85 1087.15,1034.59 1100.62,1043.34 1114.09,1052.08 1127.56,1060.82 1141.03,1069.56 1154.5,1078.3 1167.97,1087.04 1181.44,1095.78 1194.91,1104.52 1208.38,1113.26 1221.85,1122.01 1235.32,1130.75 1248.79,1139.49 1262.26,1148.23 1275.73,1156.97 1289.21,1165.71 1302.68,1174.45 1316.15,1183.19 1329.62,1191.93 1343.09,1200.68 1356.56,1209.42 1370.03,1218.16 1383.5,1226.9 1396.97,1235.64 1410.44,1244.38 1423.91,1253.12 1437.38,1261.86 1450.85,1270.6 1464.32,1279.35 1477.79,1288.09 1491.26,1296.83 1504.73,1305.57 1518.2,1314.31 1531.67,1323.05 1545.14,1331.79 1558.61,1340.53 1572.08,1349.27 1585.55,1358.01 1599.02,1366.76 1612.49,1375.5 1625.96,1384.24 "/>
<polyline clip-path="url(#clip352)" style="stroke:#e26f46; stroke-linecap:round; stroke-linejoin:round; stroke-width:12; stroke-opacity:1; fill:none" points="292.4,302.528 309.238,313.454 326.076,324.381 342.914,335.307 359.751,346.233 376.589,357.16 393.427,368.086 410.265,379.012 427.103,389.939 443.941,400.865 460.779,411.791 477.617,422.718 494.455,433.644 511.293,444.571 528.131,455.497 544.969,466.423 561.807,477.35 578.644,488.276 595.482,499.202 612.32,510.129 629.158,521.055 645.996,531.982 662.834,542.908 679.672,553.834 696.51,564.761 713.348,575.687 730.186,586.613 747.024,597.54 763.862,608.466 780.7,619.392 797.538,630.319 814.375,641.245 831.213,652.172 848.051,663.098 864.889,674.024 881.727,684.951 898.565,695.877 915.403,706.803 932.241,717.73 949.079,728.656 965.917,739.583 982.755,750.509 999.593,761.435 1016.43,772.362 1033.27,783.288 1050.11,794.214 1066.94,805.141 1083.78,816.067 1100.62,826.993 1117.46,837.92 1134.3,848.846 1151.13,859.773 1167.97,870.699 1184.81,881.625 1201.65,892.552 1218.49,903.478 1235.32,914.404 1252.16,925.331 1269,936.257 1285.84,947.184 1302.68,958.11 1319.51,969.036 1336.35,979.963 1353.19,990.889 1370.03,1001.82 1386.87,1012.74 1403.7,1023.67 1420.54,1034.59 1437.38,1045.52 1454.22,1056.45 1471.05,1067.37 1487.89,1078.3 1504.73,1089.23 1521.57,1100.15 1538.41,1111.08 1555.24,1122.01 1572.08,1132.93 1588.92,1143.86 1605.76,1154.78 1622.6,1165.71 1639.43,1176.64 1656.27,1187.56 1673.11,1198.49 1689.95,1209.42 1706.79,1220.34 1723.62,1231.27 1740.46,1242.2 1757.3,1253.12 1774.14,1264.05 1790.98,1274.97 1807.81,1285.9 1824.65,1296.83 1841.49,1307.75 1858.33,1318.68 1875.16,1329.61 1892,1340.53 1908.84,1351.46 1925.68,1362.39 1942.52,1373.31 1959.35,1384.24 "/>
<polyline clip-path="url(#clip352)" style="stroke:#3da44d; stroke-linecap:round; stroke-linejoin:round; stroke-width:12; stroke-opacity:1; fill:none" points="292.4,86.1857 312.605,99.2973 332.811,112.409 353.016,125.521 373.222,138.632 393.427,151.744 413.633,164.856 433.838,177.967 454.044,191.079 474.249,204.19 494.455,217.302 514.66,230.414 534.866,243.525 555.071,256.637 575.277,269.749 595.482,282.86 615.688,295.972 635.893,309.084 656.099,322.195 676.304,335.307 696.51,348.419 716.715,361.53 736.921,374.642 757.127,387.753 777.332,400.865 797.538,413.977 817.743,427.088 837.949,440.2 858.154,453.312 878.36,466.423 898.565,479.535 918.771,492.647 938.976,505.758 959.182,518.87 979.387,531.982 999.593,545.093 1019.8,558.205 1040,571.316 1060.21,584.428 1080.41,597.54 1100.62,610.651 1120.83,623.763 1141.03,636.875 1161.24,649.986 1181.44,663.098 1201.65,676.21 1221.85,689.321 1242.06,702.433 1262.26,715.545 1282.47,728.656 1302.68,741.768 1322.88,754.879 1343.09,767.991 1363.29,781.103 1383.5,794.214 1403.7,807.326 1423.91,820.438 1444.11,833.549 1464.32,846.661 1484.53,859.773 1504.73,872.884 1524.94,885.996 1545.14,899.107 1565.35,912.219 1585.55,925.331 1605.76,938.442 1625.96,951.554 1646.17,964.666 1666.37,977.777 1686.58,990.889 1706.79,1004 1726.99,1017.11 1747.2,1030.22 1767.4,1043.34 1787.61,1056.45 1807.81,1069.56 1828.02,1082.67 1848.22,1095.78 1868.43,1108.89 1888.64,1122.01 1908.84,1135.12 1929.05,1148.23 1949.25,1161.34 1969.46,1174.45 1989.66,1187.56 2009.87,1200.68 2030.07,1213.79 2050.28,1226.9 2070.48,1240.01 2090.69,1253.12 2110.9,1266.23 2131.1,1279.35 2151.31,1292.46 2171.51,1305.57 2191.72,1318.68 2211.92,1331.79 2232.13,1344.9 2252.33,1358.01 2272.54,1371.13 2292.75,1384.24 "/>
<path clip-path="url(#clip350)" d="M1760.27 300.469 L2282.08 300.469 L2282.08 93.1086 L1760.27 93.1086  Z" fill="#eee9e9" fill-rule="evenodd" fill-opacity="1"/>
<polyline clip-path="url(#clip350)" style="stroke:#000000; stroke-linecap:round; stroke-linejoin:round; stroke-width:4; stroke-opacity:0; fill:none" points="1760.27,300.469 2282.08,300.469 2282.08,93.1086 1760.27,93.1086 1760.27,300.469 "/>
<polyline clip-path="url(#clip350)" style="stroke:#009af9; stroke-linecap:round; stroke-linejoin:round; stroke-width:12; stroke-opacity:1; fill:none" points="1783.83,144.949 1925.19,144.949 "/>
<path clip-path="url(#clip350)" d="M1948.75 127.669 L1953.45 127.669 L1953.45 148.664 Q1953.45 154.219 1955.46 156.673 Q1957.48 159.104 1961.99 159.104 Q1966.48 159.104 1968.5 156.673 Q1970.51 154.219 1970.51 148.664 L1970.51 127.669 L1975.21 127.669 L1975.21 149.243 Q1975.21 156.002 1971.85 159.451 Q1968.52 162.9 1961.99 162.9 Q1955.44 162.9 1952.08 159.451 Q1948.75 156.002 1948.75 149.243 L1948.75 127.669 Z" fill="#000000" fill-rule="nonzero" fill-opacity="1" /><path clip-path="url(#clip350)" d="M1984.88 156.349 L1989.77 156.349 L1989.77 162.229 L1984.88 162.229 L1984.88 156.349 M1984.88 137.715 L1989.77 137.715 L1989.77 143.594 L1984.88 143.594 L1984.88 137.715 Z" fill="#000000" fill-rule="nonzero" fill-opacity="1" /><path clip-path="url(#clip350)" d="M2025.44 145.817 Q2022.11 145.817 2020.19 147.599 Q2018.29 149.381 2018.29 152.506 Q2018.29 155.631 2020.19 157.414 Q2022.11 159.196 2025.44 159.196 Q2028.77 159.196 2030.69 157.414 Q2032.62 155.608 2032.62 152.506 Q2032.62 149.381 2030.69 147.599 Q2028.8 145.817 2025.44 145.817 M2020.76 143.826 Q2017.75 143.085 2016.06 141.025 Q2014.4 138.965 2014.4 136.002 Q2014.4 131.858 2017.34 129.451 Q2020.3 127.044 2025.44 127.044 Q2030.6 127.044 2033.54 129.451 Q2036.48 131.858 2036.48 136.002 Q2036.48 138.965 2034.79 141.025 Q2033.13 143.085 2030.14 143.826 Q2033.52 144.613 2035.39 146.905 Q2037.29 149.196 2037.29 152.506 Q2037.29 157.53 2034.21 160.215 Q2031.16 162.9 2025.44 162.9 Q2019.72 162.9 2016.64 160.215 Q2013.59 157.53 2013.59 152.506 Q2013.59 149.196 2015.49 146.905 Q2017.38 144.613 2020.76 143.826 M2019.05 136.442 Q2019.05 139.127 2020.72 140.632 Q2022.41 142.136 2025.44 142.136 Q2028.45 142.136 2030.14 140.632 Q2031.85 139.127 2031.85 136.442 Q2031.85 133.757 2030.14 132.252 Q2028.45 130.747 2025.44 130.747 Q2022.41 130.747 2020.72 132.252 Q2019.05 133.757 2019.05 136.442 Z" fill="#000000" fill-rule="nonzero" fill-opacity="1" /><path clip-path="url(#clip350)" d="M2055.6 130.747 Q2051.99 130.747 2050.16 134.312 Q2048.36 137.854 2048.36 144.983 Q2048.36 152.09 2050.16 155.655 Q2051.99 159.196 2055.6 159.196 Q2059.24 159.196 2061.04 155.655 Q2062.87 152.09 2062.87 144.983 Q2062.87 137.854 2061.04 134.312 Q2059.24 130.747 2055.6 130.747 M2055.6 127.044 Q2061.41 127.044 2064.47 131.65 Q2067.55 136.233 2067.55 144.983 Q2067.55 153.71 2064.47 158.317 Q2061.41 162.9 2055.6 162.9 Q2049.79 162.9 2046.71 158.317 Q2043.66 153.71 2043.66 144.983 Q2043.66 136.233 2046.71 131.65 Q2049.79 127.044 2055.6 127.044 Z" fill="#000000" fill-rule="nonzero" fill-opacity="1" /><path clip-path="url(#clip350)" d="M2075.76 156.349 L2080.65 156.349 L2080.65 162.229 L2075.76 162.229 L2075.76 156.349 Z" fill="#000000" fill-rule="nonzero" fill-opacity="1" /><path clip-path="url(#clip350)" d="M2100.83 130.747 Q2097.22 130.747 2095.39 134.312 Q2093.59 137.854 2093.59 144.983 Q2093.59 152.09 2095.39 155.655 Q2097.22 159.196 2100.83 159.196 Q2104.47 159.196 2106.27 155.655 Q2108.1 152.09 2108.1 144.983 Q2108.1 137.854 2106.27 134.312 Q2104.47 130.747 2100.83 130.747 M2100.83 127.044 Q2106.64 127.044 2109.7 131.65 Q2112.78 136.233 2112.78 144.983 Q2112.78 153.71 2109.7 158.317 Q2106.64 162.9 2100.83 162.9 Q2095.02 162.9 2091.94 158.317 Q2088.89 153.71 2088.89 144.983 Q2088.89 136.233 2091.94 131.65 Q2095.02 127.044 2100.83 127.044 Z" fill="#000000" fill-rule="nonzero" fill-opacity="1" /><path clip-path="url(#clip350)" d="M2135.02 151.997 L2135.02 136.303 L2139.28 136.303 L2139.28 151.835 Q2139.28 155.516 2140.72 157.368 Q2142.15 159.196 2145.02 159.196 Q2148.47 159.196 2150.46 156.997 Q2152.48 154.798 2152.48 151.002 L2152.48 136.303 L2156.74 136.303 L2156.74 162.229 L2152.48 162.229 L2152.48 158.247 Q2150.93 160.608 2148.87 161.766 Q2146.83 162.9 2144.12 162.9 Q2139.65 162.9 2137.34 160.122 Q2135.02 157.344 2135.02 151.997 M2145.74 135.678 L2145.74 135.678 Z" fill="#000000" fill-rule="nonzero" fill-opacity="1" /><path clip-path="url(#clip350)" d="M2169.72 128.942 L2169.72 136.303 L2178.49 136.303 L2178.49 139.613 L2169.72 139.613 L2169.72 153.687 Q2169.72 156.858 2170.58 157.761 Q2171.46 158.664 2174.12 158.664 L2178.49 158.664 L2178.49 162.229 L2174.12 162.229 Q2169.19 162.229 2167.31 160.4 Q2165.44 158.548 2165.44 153.687 L2165.44 139.613 L2162.31 139.613 L2162.31 136.303 L2165.44 136.303 L2165.44 128.942 L2169.72 128.942 Z" fill="#000000" fill-rule="nonzero" fill-opacity="1" /><path clip-path="url(#clip350)" d="M2184.1 136.303 L2188.36 136.303 L2188.36 162.229 L2184.1 162.229 L2184.1 136.303 M2184.1 126.21 L2188.36 126.21 L2188.36 131.604 L2184.1 131.604 L2184.1 126.21 Z" fill="#000000" fill-rule="nonzero" fill-opacity="1" /><path clip-path="url(#clip350)" d="M2197.27 126.21 L2201.53 126.21 L2201.53 162.229 L2197.27 162.229 L2197.27 126.21 Z" fill="#000000" fill-rule="nonzero" fill-opacity="1" /><path clip-path="url(#clip350)" d="M2226.97 137.067 L2226.97 141.094 Q2225.16 140.169 2223.22 139.706 Q2221.27 139.243 2219.19 139.243 Q2216.02 139.243 2214.42 140.215 Q2212.85 141.187 2212.85 143.131 Q2212.85 144.613 2213.98 145.469 Q2215.11 146.303 2218.54 147.067 L2220 147.391 Q2224.54 148.363 2226.43 150.145 Q2228.36 151.905 2228.36 155.076 Q2228.36 158.687 2225.49 160.793 Q2222.64 162.9 2217.64 162.9 Q2215.55 162.9 2213.29 162.483 Q2211.04 162.09 2208.54 161.28 L2208.54 156.881 Q2210.9 158.108 2213.19 158.733 Q2215.49 159.335 2217.73 159.335 Q2220.74 159.335 2222.36 158.317 Q2223.98 157.275 2223.98 155.4 Q2223.98 153.664 2222.8 152.738 Q2221.64 151.812 2217.68 150.956 L2216.2 150.608 Q2212.24 149.775 2210.49 148.062 Q2208.73 146.326 2208.73 143.317 Q2208.73 139.659 2211.32 137.669 Q2213.91 135.678 2218.68 135.678 Q2221.04 135.678 2223.12 136.025 Q2225.21 136.372 2226.97 137.067 Z" fill="#000000" fill-rule="nonzero" fill-opacity="1" /><polyline clip-path="url(#clip350)" style="stroke:#e26f46; stroke-linecap:round; stroke-linejoin:round; stroke-width:12; stroke-opacity:1; fill:none" points="1783.83,196.789 1925.19,196.789 "/>
<path clip-path="url(#clip350)" d="M1948.75 179.509 L1953.45 179.509 L1953.45 200.504 Q1953.45 206.059 1955.46 208.513 Q1957.48 210.944 1961.99 210.944 Q1966.48 210.944 1968.5 208.513 Q1970.51 206.059 1970.51 200.504 L1970.51 179.509 L1975.21 179.509 L1975.21 201.083 Q1975.21 207.842 1971.85 211.291 Q1968.52 214.74 1961.99 214.74 Q1955.44 214.74 1952.08 211.291 Q1948.75 207.842 1948.75 201.083 L1948.75 179.509 Z" fill="#000000" fill-rule="nonzero" fill-opacity="1" /><path clip-path="url(#clip350)" d="M1984.88 208.189 L1989.77 208.189 L1989.77 214.069 L1984.88 214.069 L1984.88 208.189 M1984.88 189.555 L1989.77 189.555 L1989.77 195.434 L1984.88 195.434 L1984.88 189.555 Z" fill="#000000" fill-rule="nonzero" fill-opacity="1" /><path clip-path="url(#clip350)" d="M2016.25 210.133 L2023.89 210.133 L2023.89 183.768 L2015.58 185.435 L2015.58 181.175 L2023.84 179.509 L2028.52 179.509 L2028.52 210.133 L2036.16 210.133 L2036.16 214.069 L2016.25 214.069 L2016.25 210.133 Z" fill="#000000" fill-rule="nonzero" fill-opacity="1" /><path clip-path="url(#clip350)" d="M2055.6 182.587 Q2051.99 182.587 2050.16 186.152 Q2048.36 189.694 2048.36 196.823 Q2048.36 203.93 2050.16 207.495 Q2051.99 211.036 2055.6 211.036 Q2059.24 211.036 2061.04 207.495 Q2062.87 203.93 2062.87 196.823 Q2062.87 189.694 2061.04 186.152 Q2059.24 182.587 2055.6 182.587 M2055.6 178.884 Q2061.41 178.884 2064.47 183.49 Q2067.55 188.073 2067.55 196.823 Q2067.55 205.55 2064.47 210.157 Q2061.41 214.74 2055.6 214.74 Q2049.79 214.74 2046.71 210.157 Q2043.66 205.55 2043.66 196.823 Q2043.66 188.073 2046.71 183.49 Q2049.79 178.884 2055.6 178.884 Z" fill="#000000" fill-rule="nonzero" fill-opacity="1" /><path clip-path="url(#clip350)" d="M2085.76 182.587 Q2082.15 182.587 2080.32 186.152 Q2078.52 189.694 2078.52 196.823 Q2078.52 203.93 2080.32 207.495 Q2082.15 211.036 2085.76 211.036 Q2089.4 211.036 2091.2 207.495 Q2093.03 203.93 2093.03 196.823 Q2093.03 189.694 2091.2 186.152 Q2089.4 182.587 2085.76 182.587 M2085.76 178.884 Q2091.57 178.884 2094.63 183.49 Q2097.71 188.073 2097.71 196.823 Q2097.71 205.55 2094.63 210.157 Q2091.57 214.74 2085.76 214.74 Q2079.95 214.74 2076.87 210.157 Q2073.82 205.55 2073.82 196.823 Q2073.82 188.073 2076.87 183.49 Q2079.95 178.884 2085.76 178.884 Z" fill="#000000" fill-rule="nonzero" fill-opacity="1" /><path clip-path="url(#clip350)" d="M2105.93 208.189 L2110.81 208.189 L2110.81 214.069 L2105.93 214.069 L2105.93 208.189 Z" fill="#000000" fill-rule="nonzero" fill-opacity="1" /><path clip-path="url(#clip350)" d="M2130.99 182.587 Q2127.38 182.587 2125.56 186.152 Q2123.75 189.694 2123.75 196.823 Q2123.75 203.93 2125.56 207.495 Q2127.38 211.036 2130.99 211.036 Q2134.63 211.036 2136.43 207.495 Q2138.26 203.93 2138.26 196.823 Q2138.26 189.694 2136.43 186.152 Q2134.63 182.587 2130.99 182.587 M2130.99 178.884 Q2136.81 178.884 2139.86 183.49 Q2142.94 188.073 2142.94 196.823 Q2142.94 205.55 2139.86 210.157 Q2136.81 214.74 2130.99 214.74 Q2125.18 214.74 2122.11 210.157 Q2119.05 205.55 2119.05 196.823 Q2119.05 188.073 2122.11 183.49 Q2125.18 178.884 2130.99 178.884 Z" fill="#000000" fill-rule="nonzero" fill-opacity="1" /><path clip-path="url(#clip350)" d="M2165.18 203.837 L2165.18 188.143 L2169.44 188.143 L2169.44 203.675 Q2169.44 207.356 2170.88 209.208 Q2172.31 211.036 2175.18 211.036 Q2178.63 211.036 2180.62 208.837 Q2182.64 206.638 2182.64 202.842 L2182.64 188.143 L2186.9 188.143 L2186.9 214.069 L2182.64 214.069 L2182.64 210.087 Q2181.09 212.448 2179.03 213.606 Q2176.99 214.74 2174.28 214.74 Q2169.81 214.74 2167.5 211.962 Q2165.18 209.184 2165.18 203.837 M2175.9 187.518 L2175.9 187.518 Z" fill="#000000" fill-rule="nonzero" fill-opacity="1" /><path clip-path="url(#clip350)" d="M2199.88 180.782 L2199.88 188.143 L2208.66 188.143 L2208.66 191.453 L2199.88 191.453 L2199.88 205.527 Q2199.88 208.698 2200.74 209.601 Q2201.62 210.504 2204.28 210.504 L2208.66 210.504 L2208.66 214.069 L2204.28 214.069 Q2199.35 214.069 2197.48 212.24 Q2195.6 210.388 2195.6 205.527 L2195.6 191.453 L2192.48 191.453 L2192.48 188.143 L2195.6 188.143 L2195.6 180.782 L2199.88 180.782 Z" fill="#000000" fill-rule="nonzero" fill-opacity="1" /><path clip-path="url(#clip350)" d="M2214.26 188.143 L2218.52 188.143 L2218.52 214.069 L2214.26 214.069 L2214.26 188.143 M2214.26 178.05 L2218.52 178.05 L2218.52 183.444 L2214.26 183.444 L2214.26 178.05 Z" fill="#000000" fill-rule="nonzero" fill-opacity="1" /><path clip-path="url(#clip350)" d="M2227.43 178.05 L2231.69 178.05 L2231.69 214.069 L2227.43 214.069 L2227.43 178.05 Z" fill="#000000" fill-rule="nonzero" fill-opacity="1" /><path clip-path="url(#clip350)" d="M2257.13 188.907 L2257.13 192.934 Q2255.32 192.009 2253.38 191.546 Q2251.43 191.083 2249.35 191.083 Q2246.18 191.083 2244.58 192.055 Q2243.01 193.027 2243.01 194.971 Q2243.01 196.453 2244.14 197.309 Q2245.28 198.143 2248.7 198.907 L2250.16 199.231 Q2254.7 200.203 2256.6 201.985 Q2258.52 203.745 2258.52 206.916 Q2258.52 210.527 2255.65 212.633 Q2252.8 214.74 2247.8 214.74 Q2245.72 214.74 2243.45 214.323 Q2241.2 213.93 2238.7 213.12 L2238.7 208.721 Q2241.06 209.948 2243.36 210.573 Q2245.65 211.175 2247.89 211.175 Q2250.9 211.175 2252.52 210.157 Q2254.14 209.115 2254.14 207.24 Q2254.14 205.504 2252.96 204.578 Q2251.8 203.652 2247.85 202.796 L2246.36 202.448 Q2242.41 201.615 2240.65 199.902 Q2238.89 198.166 2238.89 195.157 Q2238.89 191.499 2241.48 189.509 Q2244.07 187.518 2248.84 187.518 Q2251.2 187.518 2253.29 187.865 Q2255.37 188.212 2257.13 188.907 Z" fill="#000000" fill-rule="nonzero" fill-opacity="1" /><polyline clip-path="url(#clip350)" style="stroke:#3da44d; stroke-linecap:round; stroke-linejoin:round; stroke-width:12; stroke-opacity:1; fill:none" points="1783.83,248.629 1925.19,248.629 "/>
<path clip-path="url(#clip350)" d="M1948.75 231.349 L1953.45 231.349 L1953.45 252.344 Q1953.45 257.899 1955.46 260.353 Q1957.48 262.784 1961.99 262.784 Q1966.48 262.784 1968.5 260.353 Q1970.51 257.899 1970.51 252.344 L1970.51 231.349 L1975.21 231.349 L1975.21 252.923 Q1975.21 259.682 1971.85 263.131 Q1968.52 266.58 1961.99 266.58 Q1955.44 266.58 1952.08 263.131 Q1948.75 259.682 1948.75 252.923 L1948.75 231.349 Z" fill="#000000" fill-rule="nonzero" fill-opacity="1" /><path clip-path="url(#clip350)" d="M1984.88 260.029 L1989.77 260.029 L1989.77 265.909 L1984.88 265.909 L1984.88 260.029 M1984.88 241.395 L1989.77 241.395 L1989.77 247.274 L1984.88 247.274 L1984.88 241.395 Z" fill="#000000" fill-rule="nonzero" fill-opacity="1" /><path clip-path="url(#clip350)" d="M2016.25 261.973 L2023.89 261.973 L2023.89 235.608 L2015.58 237.275 L2015.58 233.015 L2023.84 231.349 L2028.52 231.349 L2028.52 261.973 L2036.16 261.973 L2036.16 265.909 L2016.25 265.909 L2016.25 261.973 Z" fill="#000000" fill-rule="nonzero" fill-opacity="1" /><path clip-path="url(#clip350)" d="M2049.63 261.973 L2065.95 261.973 L2065.95 265.909 L2044 265.909 L2044 261.973 Q2046.67 259.219 2051.25 254.589 Q2055.86 249.936 2057.04 248.594 Q2059.28 246.071 2060.16 244.335 Q2061.06 242.575 2061.06 240.886 Q2061.06 238.131 2059.12 236.395 Q2057.2 234.659 2054.1 234.659 Q2051.9 234.659 2049.44 235.423 Q2047.01 236.187 2044.24 237.737 L2044.24 233.015 Q2047.06 231.881 2049.51 231.302 Q2051.97 230.724 2054 230.724 Q2059.37 230.724 2062.57 233.409 Q2065.76 236.094 2065.76 240.585 Q2065.76 242.714 2064.95 244.636 Q2064.17 246.534 2062.06 249.126 Q2061.48 249.798 2058.38 253.015 Q2055.28 256.21 2049.63 261.973 Z" fill="#000000" fill-rule="nonzero" fill-opacity="1" /><path clip-path="url(#clip350)" d="M2085.76 234.427 Q2082.15 234.427 2080.32 237.992 Q2078.52 241.534 2078.52 248.663 Q2078.52 255.77 2080.32 259.335 Q2082.15 262.876 2085.76 262.876 Q2089.4 262.876 2091.2 259.335 Q2093.03 255.77 2093.03 248.663 Q2093.03 241.534 2091.2 237.992 Q2089.4 234.427 2085.76 234.427 M2085.76 230.724 Q2091.57 230.724 2094.63 235.33 Q2097.71 239.913 2097.71 248.663 Q2097.71 257.39 2094.63 261.997 Q2091.57 266.58 2085.76 266.58 Q2079.95 266.58 2076.87 261.997 Q2073.82 257.39 2073.82 248.663 Q2073.82 239.913 2076.87 235.33 Q2079.95 230.724 2085.76 230.724 Z" fill="#000000" fill-rule="nonzero" fill-opacity="1" /><path clip-path="url(#clip350)" d="M2105.93 260.029 L2110.81 260.029 L2110.81 265.909 L2105.93 265.909 L2105.93 260.029 Z" fill="#000000" fill-rule="nonzero" fill-opacity="1" /><path clip-path="url(#clip350)" d="M2130.99 234.427 Q2127.38 234.427 2125.56 237.992 Q2123.75 241.534 2123.75 248.663 Q2123.75 255.77 2125.56 259.335 Q2127.38 262.876 2130.99 262.876 Q2134.63 262.876 2136.43 259.335 Q2138.26 255.77 2138.26 248.663 Q2138.26 241.534 2136.43 237.992 Q2134.63 234.427 2130.99 234.427 M2130.99 230.724 Q2136.81 230.724 2139.86 235.33 Q2142.94 239.913 2142.94 248.663 Q2142.94 257.39 2139.86 261.997 Q2136.81 266.58 2130.99 266.58 Q2125.18 266.58 2122.11 261.997 Q2119.05 257.39 2119.05 248.663 Q2119.05 239.913 2122.11 235.33 Q2125.18 230.724 2130.99 230.724 Z" fill="#000000" fill-rule="nonzero" fill-opacity="1" /><path clip-path="url(#clip350)" d="M2165.18 255.677 L2165.18 239.983 L2169.44 239.983 L2169.44 255.515 Q2169.44 259.196 2170.88 261.048 Q2172.31 262.876 2175.18 262.876 Q2178.63 262.876 2180.62 260.677 Q2182.64 258.478 2182.64 254.682 L2182.64 239.983 L2186.9 239.983 L2186.9 265.909 L2182.64 265.909 L2182.64 261.927 Q2181.09 264.288 2179.03 265.446 Q2176.99 266.58 2174.28 266.58 Q2169.81 266.58 2167.5 263.802 Q2165.18 261.024 2165.18 255.677 M2175.9 239.358 L2175.9 239.358 Z" fill="#000000" fill-rule="nonzero" fill-opacity="1" /><path clip-path="url(#clip350)" d="M2199.88 232.622 L2199.88 239.983 L2208.66 239.983 L2208.66 243.293 L2199.88 243.293 L2199.88 257.367 Q2199.88 260.538 2200.74 261.441 Q2201.62 262.344 2204.28 262.344 L2208.66 262.344 L2208.66 265.909 L2204.28 265.909 Q2199.35 265.909 2197.48 264.08 Q2195.6 262.228 2195.6 257.367 L2195.6 243.293 L2192.48 243.293 L2192.48 239.983 L2195.6 239.983 L2195.6 232.622 L2199.88 232.622 Z" fill="#000000" fill-rule="nonzero" fill-opacity="1" /><path clip-path="url(#clip350)" d="M2214.26 239.983 L2218.52 239.983 L2218.52 265.909 L2214.26 265.909 L2214.26 239.983 M2214.26 229.89 L2218.52 229.89 L2218.52 235.284 L2214.26 235.284 L2214.26 229.89 Z" fill="#000000" fill-rule="nonzero" fill-opacity="1" /><path clip-path="url(#clip350)" d="M2227.43 229.89 L2231.69 229.89 L2231.69 265.909 L2227.43 265.909 L2227.43 229.89 Z" fill="#000000" fill-rule="nonzero" fill-opacity="1" /><path clip-path="url(#clip350)" d="M2257.13 240.747 L2257.13 244.774 Q2255.32 243.849 2253.38 243.386 Q2251.43 242.923 2249.35 242.923 Q2246.18 242.923 2244.58 243.895 Q2243.01 244.867 2243.01 246.811 Q2243.01 248.293 2244.14 249.149 Q2245.28 249.983 2248.7 250.747 L2250.16 251.071 Q2254.7 252.043 2256.6 253.825 Q2258.52 255.585 2258.52 258.756 Q2258.52 262.367 2255.65 264.473 Q2252.8 266.58 2247.8 266.58 Q2245.72 266.58 2243.45 266.163 Q2241.2 265.77 2238.7 264.96 L2238.7 260.561 Q2241.06 261.788 2243.36 262.413 Q2245.65 263.015 2247.89 263.015 Q2250.9 263.015 2252.52 261.997 Q2254.14 260.955 2254.14 259.08 Q2254.14 257.344 2252.96 256.418 Q2251.8 255.492 2247.85 254.636 L2246.36 254.288 Q2242.41 253.455 2240.65 251.742 Q2238.89 250.006 2238.89 246.997 Q2238.89 243.339 2241.48 241.349 Q2244.07 239.358 2248.84 239.358 Q2251.2 239.358 2253.29 239.705 Q2255.37 240.052 2257.13 240.747 Z" fill="#000000" fill-rule="nonzero" fill-opacity="1" /></svg>
